<?xml version="1.0" standalone="no"?>
<!DOCTYPE svg PUBLIC "-//W3C//DTD SVG 20010904//EN"
 "http://www.w3.org/TR/2001/REC-SVG-20010904/DTD/svg10.dtd">
<svg version="1.0" xmlns="http://www.w3.org/2000/svg"
 width="665.000000pt" height="594.000000pt" viewBox="0 0 665.000000 594.000000"
 preserveAspectRatio="xMidYMid meet">

<g transform="translate(0.000000,594.000000) scale(0.100000,-0.100000)"
fill="#000000" stroke="none">
<path d="M2953 5765 c-657 -83 -1241 -373 -1693 -841 -410 -424 -669 -949
-762 -1545 -29 -192 -32 -597 -5 -784 53 -360 161 -686 325 -980 460 -827
1283 -1362 2224 -1446 159 -14 478 -6 624 15 493 73 919 250 1319 550 146 110
411 371 516 511 306 404 484 820 564 1320 22 133 31 536 16 675 -58 539 -240
1005 -558 1427 -96 129 -301 345 -427 452 -398 337 -885 555 -1418 637 -146
22 -577 28 -725 9z m574 -427 c63 -6 110 -15 106 -19 -4 -4 -44 -22 -88 -39
-108 -42 -348 -164 -465 -235 -537 -326 -951 -766 -1212 -1290 -116 -231 -152
-359 -115 -408 8 -12 47 -24 121 -37 148 -27 151 -27 119 8 -30 32 -53 82 -53
116 0 64 194 380 359 586 111 138 358 383 496 494 378 302 823 526 1286 646
l87 22 100 -45 c133 -59 318 -169 440 -261 122 -92 132 -103 100 -110 -182
-37 -301 -80 -466 -166 -115 -61 -261 -153 -367 -234 -73 -55 -85 -49 -96 48
-8 66 -28 110 -59 126 -13 7 -78 -57 -346 -344 -181 -194 -330 -352 -332 -351
-6 5 92 192 142 270 77 121 196 266 330 404 l121 123 -60 -30 c-162 -81 -394
-257 -522 -397 -89 -96 -139 -171 -233 -345 -186 -346 -284 -447 -520 -536
l-85 -32 80 -7 c153 -15 388 15 474 59 25 13 34 13 92 -7 52 -17 88 -21 199
-21 169 -1 223 15 423 126 578 320 892 422 1297 421 215 0 413 -35 595 -106
l59 -23 23 -74 c38 -124 72 -289 88 -426 15 -129 20 -397 9 -466 l-6 -37 -72
63 c-139 121 -312 222 -446 260 -56 16 -170 36 -170 30 0 -2 22 -15 49 -28 76
-39 203 -139 276 -218 120 -129 211 -286 266 -456 l23 -72 -38 -111 c-87 -259
-227 -515 -395 -723 l-56 -69 -7 44 c-3 24 -7 80 -7 124 -1 44 -8 142 -16 218
-36 338 -99 579 -208 791 -200 391 -514 562 -992 543 -284 -12 -594 -88 -819
-201 -108 -55 -126 -76 -86 -106 21 -16 20 -17 -96 -110 -378 -302 -676 -676
-777 -974 l-23 -68 -50 58 c-162 189 -241 348 -290 584 -22 104 -25 369 -5
480 17 98 58 265 77 308 48 116 -71 -58 -146 -213 -52 -107 -91 -222 -111
-325 -16 -84 -16 -296 0 -380 48 -246 173 -479 374 -695 83 -89 223 -212 232
-203 3 2 27 69 54 149 208 609 525 1036 948 1277 264 150 595 232 824 202 302
-39 523 -185 640 -425 86 -177 116 -376 106 -695 -9 -260 -53 -544 -117 -762
-19 -63 -25 -72 -68 -99 -63 -40 -283 -152 -288 -146 -2 2 14 42 35 88 86 183
156 432 182 642 13 108 7 448 -9 507 -9 32 -10 30 -11 -30 -8 -408 -260 -873
-667 -1232 -185 -162 -180 -160 -295 -170 -55 -5 -121 -8 -146 -6 l-47 3 60
39 c302 198 581 520 740 855 41 86 59 130 46 116 -4 -5 -40 -50 -78 -100 -349
-455 -888 -735 -1464 -762 -123 -5 -126 -5 -205 27 -525 209 -999 659 -1244
1182 -158 336 -225 639 -225 1018 0 232 13 351 61 555 177 756 734 1388 1468
1670 214 82 362 116 650 149 74 8 339 5 442 -6z m1657 -930 c86 -113 212 -315
203 -324 -3 -3 -41 2 -84 10 -43 9 -132 22 -199 28 -212 20 -490 -16 -713 -93
-109 -38 -345 -154 -435 -214 -40 -26 -66 -39 -62 -29 34 89 275 354 396 435
78 52 66 59 -52 30 -107 -27 -240 -94 -349 -175 -80 -59 -88 -68 -94 -107 -24
-142 -72 -219 -204 -325 -118 -95 -248 -166 -342 -189 -68 -16 -206 -20 -226
-7 -9 6 -3 25 25 72 72 126 355 388 625 580 l57 41 30 -29 30 -30 37 30 c131
105 334 222 498 287 221 87 397 120 624 118 l155 -2 80 -107z"/>
<path d="M1977 3123 c-61 -84 -90 -152 -95 -225 -2 -38 -2 -68 1 -68 3 0 22
24 43 53 69 95 126 157 150 163 13 3 24 13 24 21 0 21 -61 103 -76 103 -7 0
-28 -21 -47 -47z"/>
</g>
</svg>
